<svg width="152" height="22" viewBox="0 0 152 22" fill="none" xmlns="http://www.w3.org/2000/svg">
<path d="M14.4976 0V17.0354H10.7177V5.96239C10.6539 6.14086 10.5183 6.40856 10.311 6.76549C10.1355 7.07375 10.0319 7.25221 9.99997 7.30089L3.92343 17.0354H0V0H3.77989V11C3.87559 10.7566 4.01115 10.4889 4.18659 10.1969C4.36203 9.88864 4.4657 9.71018 4.49759 9.6615L10.5741 0H14.4976Z" fill="#282828"/>
<path d="M20.7973 4.9646V9.0531H25.0078V4.9646H28.4049V17.0354H25.0078V12.2655H20.7973V17.0354H17.4001V4.9646H20.7973Z" fill="#282828"/>
<path d="M40.3763 4.9646V8.17699H37.0031V17.0354H33.5581V8.17699H30.1849V4.9646H40.3763Z" fill="#282828"/>
<path d="M53.4164 11.9004H44.6365C44.7322 12.6468 45.0432 13.2308 45.5695 13.6527C46.0959 14.0583 46.7338 14.2611 47.4834 14.2611C48.1692 14.2611 48.7434 14.115 49.2059 13.823C49.6844 13.531 50.115 13.0442 50.4978 12.3628L53.0815 13.8473C51.965 16.1999 50.0512 17.3761 47.3399 17.3761C45.6812 17.3761 44.2458 16.7758 43.0337 15.5752C41.8375 14.3746 41.2394 12.8496 41.2394 11C41.2394 9.11799 41.8375 7.58481 43.0337 6.40044C44.2298 5.21608 45.745 4.62389 47.5791 4.62389C49.3175 4.62389 50.721 5.19985 51.7896 6.35177C52.8741 7.50369 53.4164 8.93953 53.4164 10.6593V11.9004ZM47.5073 7.4469C46.1357 7.4469 45.2266 8.07965 44.7801 9.34513H50.1867C50.0432 8.74484 49.7322 8.28245 49.2537 7.95796C48.7753 7.61726 48.1931 7.4469 47.5073 7.4469Z" fill="#282828"/>
<path d="M55.5514 22V4.9646H59.1399V6.35177C60.0649 5.19985 61.3727 4.62389 63.0633 4.62389C64.5147 4.62389 65.7826 5.19174 66.8671 6.32743C67.9676 7.46313 68.5178 9.02065 68.5178 11C68.5178 12.9794 67.9517 14.5369 66.8193 15.6726C65.7029 16.8083 64.4269 17.3761 62.9915 17.3761C61.3967 17.3761 60.1128 16.8407 59.1399 15.7699V22H55.5514ZM64.0202 8.83407C63.4461 8.26622 62.7443 7.9823 61.915 7.9823C61.0857 7.9823 60.3839 8.26622 59.8097 8.83407C59.2356 9.38569 58.9485 10.1077 58.9485 11C58.9485 11.8923 59.2356 12.6224 59.8097 13.1903C60.3839 13.7419 61.0857 14.0177 61.915 14.0177C62.7443 14.0177 63.4461 13.7419 64.0202 13.1903C64.5944 12.6224 64.8815 11.8923 64.8815 11C64.8815 10.1077 64.5944 9.38569 64.0202 8.83407Z" fill="#282828"/>
<path d="M79.0419 11.9248L82.0084 13.8717C80.876 16.208 78.9861 17.3761 76.3385 17.3761C74.5204 17.3761 73.0052 16.792 71.7931 15.6239C70.5969 14.4395 69.9988 12.8982 69.9988 11C69.9988 9.13422 70.6209 7.60914 71.8649 6.42478C73.1089 5.22419 74.6001 4.62389 76.3385 4.62389C78.9542 4.62389 80.7963 5.71903 81.8648 7.90929L78.9701 9.88053C78.4119 8.61504 77.5347 7.9823 76.3385 7.9823C75.5411 7.9823 74.8872 8.25811 74.3768 8.80973C73.8824 9.36136 73.6352 10.0914 73.6352 11C73.6352 11.9248 73.8744 12.663 74.3529 13.2146C74.8473 13.75 75.5012 14.0177 76.3146 14.0177C77.5267 14.0177 78.4358 13.3201 79.0419 11.9248Z" fill="#282828"/>
<path d="M95.6099 0V6.40044C95.9449 5.84882 96.4154 5.41888 97.0214 5.11062C97.6275 4.78614 98.3133 4.62389 99.0788 4.62389C100.562 4.62389 101.79 5.21608 102.763 6.40044C103.736 7.56858 104.222 9.10177 104.222 11C104.222 12.8982 103.728 14.4395 102.739 15.6239C101.766 16.792 100.514 17.3761 98.9831 17.3761C97.4839 17.3761 96.3595 16.8407 95.6099 15.7699V22H92.0214V15.7699C91.7025 16.208 91.2559 16.5892 90.6817 16.9137C90.1076 17.222 89.4537 17.3761 88.72 17.3761C87.2049 17.3761 85.9369 16.792 84.9162 15.6239C83.9114 14.4395 83.409 12.8982 83.409 11C83.409 9.11799 83.9194 7.58481 84.9401 6.40044C85.9609 5.21608 87.2208 4.62389 88.72 4.62389C90.3308 4.62389 91.4313 5.18363 92.0214 6.3031V0H95.6099ZM100.06 8.61504C99.5653 8.03097 98.9193 7.73894 98.1219 7.73894C97.3244 7.73894 96.6705 8.03097 96.1602 8.61504C95.6658 9.19911 95.4186 9.9941 95.4186 11C95.4186 12.0059 95.6658 12.8009 96.1602 13.385C96.6705 13.969 97.3244 14.2611 98.1219 14.2611C98.9193 14.2611 99.5653 13.969 100.06 13.385C100.57 12.8009 100.825 12.0059 100.825 11C100.825 9.9941 100.57 9.19911 100.06 8.61504ZM91.4473 8.61504C90.9529 8.03097 90.3069 7.73894 89.5095 7.73894C88.712 7.73894 88.0581 8.03097 87.5478 8.61504C87.0533 9.19911 86.8061 9.9941 86.8061 11C86.8061 12.0059 87.0533 12.8009 87.5478 13.385C88.0581 13.969 88.712 14.2611 89.5095 14.2611C90.3069 14.2611 90.9529 13.969 91.4473 13.385C91.9576 12.8009 92.2128 12.0059 92.2128 11C92.2128 9.9941 91.9576 9.19911 91.4473 8.61504Z" fill="#282828"/>
<path d="M117.874 11.9004H109.094C109.19 12.6468 109.501 13.2308 110.027 13.6527C110.553 14.0583 111.191 14.2611 111.941 14.2611C112.627 14.2611 113.201 14.115 113.663 13.823C114.142 13.531 114.573 13.0442 114.955 12.3628L117.539 13.8473C116.423 16.1999 114.509 17.3761 111.797 17.3761C110.139 17.3761 108.703 16.7758 107.491 15.5752C106.295 14.3746 105.697 12.8496 105.697 11C105.697 9.11799 106.295 7.58481 107.491 6.40044C108.687 5.21608 110.203 4.62389 112.037 4.62389C113.775 4.62389 115.179 5.19985 116.247 6.35177C117.332 7.50369 117.874 8.93953 117.874 10.6593V11.9004ZM111.965 7.4469C110.593 7.4469 109.684 8.07965 109.238 9.34513H114.644C114.501 8.74484 114.19 8.28245 113.711 7.95796C113.233 7.61726 112.651 7.4469 111.965 7.4469Z" fill="#282828"/>
<path d="M120.009 22V4.9646H123.597V6.35177C124.523 5.19985 125.83 4.62389 127.521 4.62389C128.972 4.62389 130.24 5.19174 131.325 6.32743C132.425 7.46313 132.975 9.02065 132.975 11C132.975 12.9794 132.409 14.5369 131.277 15.6726C130.16 16.8083 128.885 17.3761 127.449 17.3761C125.854 17.3761 124.57 16.8407 123.597 15.7699V22H120.009ZM128.478 8.83407C127.904 8.26622 127.202 7.9823 126.373 7.9823C125.543 7.9823 124.841 8.26622 124.267 8.83407C123.693 9.38569 123.406 10.1077 123.406 11C123.406 11.8923 123.693 12.6224 124.267 13.1903C124.841 13.7419 125.543 14.0177 126.373 14.0177C127.202 14.0177 127.904 13.7419 128.478 13.1903C129.052 12.6224 129.339 11.8923 129.339 11C129.339 10.1077 129.052 9.38569 128.478 8.83407Z" fill="#282828"/>
<path d="M146.611 17.0354H142.974C142.671 16.7271 142.48 16.208 142.4 15.4779C141.523 16.7434 140.311 17.3761 138.764 17.3761C137.456 17.3761 136.427 17.0192 135.678 16.3053C134.944 15.5914 134.577 14.6586 134.577 13.5066C134.577 12.3709 135 11.4786 135.845 10.8296C136.69 10.1645 137.815 9.7264 139.218 9.51549L142.233 9.02876V8.80973C142.233 7.64159 141.619 7.05752 140.391 7.05752C139.848 7.05752 139.41 7.15487 139.075 7.34956C138.74 7.54425 138.572 7.81195 138.572 8.15266C138.572 8.25 138.58 8.32301 138.596 8.37168L135.343 9.49115C135.215 9.02065 135.151 8.63127 135.151 8.32301C135.151 7.23599 135.646 6.35177 136.635 5.67035C137.639 4.97271 138.891 4.62389 140.391 4.62389C144.011 4.62389 145.821 6.14897 145.821 9.19911V14.042C145.821 15.2589 146.084 16.2566 146.611 17.0354ZM139.505 14.5531C140.319 14.5531 140.973 14.2611 141.467 13.677C141.977 13.0767 142.233 12.3872 142.233 11.6084V11.3894L139.697 11.8274C138.612 12.0383 138.07 12.5251 138.07 13.2876C138.07 13.6445 138.198 13.9447 138.453 14.1881C138.708 14.4314 139.059 14.5531 139.505 14.5531Z" fill="#282828"/>
<path d="M148.313 17.0354V13.2876H151.998V17.0354H148.313Z" fill="#0B07E2"/>
</svg>
